<svg width="553" height="553" viewBox="0 0 553 553" fill="none" xmlns="http://www.w3.org/2000/svg">
<circle cx="276.5" cy="276.5" r="276.5" fill="#F9F9F9"/>
<path d="M461.474 395.796C463.835 401.233 465.638 408.029 461.664 410.534C454.632 414.975 439.173 411.588 438.735 411.444C432.872 409.492 440.417 402.604 443.602 399.131C443.499 399.332 441.517 403.295 447.893 404.118C454.119 404.925 462.752 404.245 461.474 395.796Z" fill="black"/>
<path d="M461.473 395.796C462.752 404.245 454.118 404.925 447.892 404.118C441.516 403.295 443.498 399.332 443.601 399.131H443.607C443.809 398.9 443.993 398.693 444.154 398.503C446.867 395.306 447.161 389.829 447.161 389.829C447.161 389.829 434.271 350.613 426.732 325.398C423.743 315.394 421.595 307.596 421.427 305.315C420.846 297.286 422.487 288.923 422.487 288.923C432.843 289.62 442.323 288.313 447.731 287.299L443.054 303.397C448.405 312.405 449.574 332.476 450.968 341.415C452.356 350.354 457.194 388.222 457.413 388.222C457.51 388.222 459.659 391.609 461.473 395.796Z" fill="white"/>
<path d="M459.273 251.752C459.722 273.742 452.431 286.28 452.431 286.28C452.431 286.28 450.691 286.747 447.731 287.3C442.323 288.313 432.843 289.621 422.487 288.924C417.517 288.59 412.333 287.795 407.311 286.274C406.528 286.044 405.744 285.791 404.973 285.52C404.973 285.52 412.489 247.012 412.155 246.632C411.815 246.252 410.358 236.496 408.843 230.437L438.999 212.703L439.201 213.049C439.201 213.049 458.824 229.763 459.273 251.752Z" fill="black"/>
<path d="M387.134 205.78C385.32 204.934 383.805 203.949 382.538 202.86C372.402 194.186 378.484 179.281 378.484 179.281L376.099 175.1L375.224 173.556L373.496 172.352L376.79 167.342L385.234 154.492L385.965 153.381L388.367 154.769L388.868 155.062C388.868 155.062 397.605 156.099 407.056 162.803C416.513 169.513 433.74 197.982 439.2 212.582L438.998 212.703L408.842 230.436L399.961 219.015L399.391 219.113L383.109 221.93C382.901 221.36 382.711 220.795 382.538 220.236C381.006 215.249 380.845 210.71 380.862 208.648C380.874 207.905 380.903 207.485 380.903 207.485C380.96 207.485 381.45 207.37 382.25 207.157C383.379 206.846 385.119 206.356 387.134 205.78Z" fill="white"/>
<path d="M426.731 325.393L423.615 390.624C423.615 390.624 424.393 392.882 425.119 395.796C425.119 395.796 421.675 398.918 414.107 399.759H414.032V333.398H414.107V326.124L405.174 311.996C404.344 301.946 407.31 286.28 407.31 286.28C412.333 287.795 417.516 288.59 422.487 288.924C422.487 288.924 420.845 297.286 421.427 305.315C421.594 307.596 423.742 315.394 426.731 325.393Z" fill="white"/>
<path d="M425.119 395.796C426.213 400.213 427.198 406.128 425.177 407.966H414.032V399.758H414.107C421.675 398.918 425.119 395.796 425.119 395.796Z" fill="black"/>
<path d="M414.107 326.124V333.398H414.032H404.397H401.189H387.809H379.608H377.005H342.58H338.341H311.405H282.492H252.019H247.74H229.16H208.017H184.53H170.73H167.378H159.326H103.39H99.5662H89.9307V326.124H414.107Z" fill="white"/>
<path d="M162.667 284.535C167.297 284.518 176.489 284.512 188.619 284.512C191.026 284.506 193.543 284.506 196.164 284.512C199.614 284.506 203.242 284.506 207.014 284.506L210.027 308.252C210.977 312.232 213.603 311.996 213.603 311.996C213.603 311.996 213.73 315.751 216.472 315.751H307.31C307.31 315.751 309.942 315.561 310.69 313.493L319.623 292.057V288.111C319.623 288.111 318.995 286.418 317.239 286.418H304.672C304.608 285.802 304.545 285.18 304.482 284.552L304.821 284.518C313.8 284.523 322.497 284.523 330.67 284.529C334.079 284.529 337.397 284.529 340.605 284.529C344.055 284.529 347.378 284.529 350.557 284.529L350.759 284.546C350.759 284.546 351.07 287.253 356.639 285.894L374.286 284.005L374.447 284.178L371.032 287.363C371.032 287.363 368.717 289.465 371.032 290.41C373.342 291.354 381.18 286.942 381.18 286.942C381.18 286.942 384.544 287.046 385.817 284.414L386.093 284.546H387.809L405.174 311.99L414.107 326.118H89.9307L159.326 284.546C159.326 284.546 160.495 284.529 162.667 284.529V284.535Z" fill="white"/>
<path d="M414.033 407.966V454.076H404.397V333.398H414.033V399.759V407.966Z" fill="white"/>
<path d="M404.397 333.398V454.076L400.981 448.075L401.189 333.398H404.397Z" fill="black"/>
<path d="M399.392 219.113L388.362 269.618L387.205 269.33L378.307 267.107L377.005 266.784L381.18 220.686C381.624 220.542 382.079 220.392 382.54 220.236C382.712 220.795 382.903 221.36 383.11 221.93L399.392 219.113Z" fill="white"/>
<path d="M394.457 142.357C397.083 153.122 388.369 154.769 388.369 154.769L385.967 153.381L385.236 154.492L385.075 154.389L383.347 152.626C383.928 150.812 384.297 148.756 384.389 146.435C384.389 146.435 391.796 143.354 388.835 134.628C385.869 125.902 379.171 132.739 380.444 137.819C380.444 137.819 377.126 137.594 375.646 133.476C375.646 133.476 362.532 136.269 361.616 119.273C361.593 118.853 349.769 120.563 342.933 128.978C342.933 128.978 338.089 151.653 348.404 161.743C337.306 163.995 332.9 152.154 332.9 152.154C327.543 136.471 338.889 115.42 354.855 107.858C370.814 100.296 376.072 107.334 376.072 107.334C395.822 107.645 394.457 142.357 394.457 142.357Z" fill="black"/>
<path d="M358.638 140.888C358.436 141.407 358.362 142.058 358.459 142.749C358.673 144.269 359.629 145.387 360.59 145.254C361.552 145.116 362.163 143.774 361.95 142.259C361.731 140.739 360.781 139.616 359.813 139.754C359.289 139.829 358.874 140.266 358.638 140.888ZM346.969 143.14C346.67 143.693 346.543 144.471 346.658 145.294C346.871 146.815 347.828 147.938 348.789 147.8C349.751 147.662 350.362 146.325 350.143 144.805C349.93 143.284 348.974 142.167 348.012 142.3C347.574 142.363 347.211 142.674 346.969 143.14ZM388.835 134.628C391.795 143.354 384.389 146.435 384.389 146.435C384.296 148.756 383.928 150.812 383.346 152.626L385.074 154.389L385.235 154.492L376.792 167.342L376.521 167.163L373.065 163.967C367.945 166.362 363.027 166.46 363.027 166.46C361.892 166.518 360.815 166.512 359.796 166.449C354.756 166.132 351.07 164.358 348.403 161.743C338.088 151.653 342.932 128.978 342.932 128.978C349.768 120.563 361.593 118.853 361.616 119.273C362.531 136.269 375.646 133.476 375.646 133.476C377.126 137.594 380.443 137.819 380.443 137.819C379.17 132.739 385.869 125.902 388.835 134.628ZM359.496 159.491C366.552 158.075 363.856 150.449 363.856 150.449C359.369 151.094 351.335 153.749 351.335 153.749C351.335 153.749 352.521 160.885 359.496 159.491Z" fill="white"/>
<path d="M387.809 333.398H379.607V410.534H387.809V333.398Z" fill="white"/>
<path d="M374.447 284.184L374.286 284.011L356.639 285.9C351.07 287.259 350.759 284.552 350.759 284.552C356.852 280.791 377.005 275.498 377.005 275.498L378.306 267.107L387.205 269.33L387.135 269.618L385.736 278.758C386.565 281.413 386.416 283.21 385.817 284.42C384.544 287.052 381.18 286.948 381.18 286.948C381.18 286.948 373.342 291.36 371.032 290.415C368.717 289.471 371.032 287.369 371.032 287.369L374.447 284.184Z" fill="white"/>
<path d="M382.54 202.86C383.807 203.949 385.322 204.934 387.136 205.78C385.12 206.356 383.381 206.846 382.252 207.157L382.137 206.719L382.54 202.86Z" fill="white"/>
<path d="M381.181 220.686C363.776 226.301 361.369 221.93 361.369 221.93C358.639 221.826 358.155 218.883 358.155 218.883C354.423 218.463 354.855 213.987 354.855 213.987C354.855 213.987 352.545 215.105 351.336 211.425C350.132 207.75 361.472 205.717 361.472 205.717C360.107 202.63 363.252 201.236 363.252 201.236C369.973 200.188 374.183 210.273 374.183 210.273L380.864 208.648C380.847 210.71 381.008 215.249 382.54 220.236C382.079 220.392 381.625 220.542 381.181 220.686Z" fill="white"/>
<path d="M379.608 333.398V410.534L377.005 405.61V333.398H379.608Z" fill="black"/>
<path d="M298.701 226.37C301.056 220.979 303.608 215.531 305.767 211.027C308.618 205.095 310.795 200.81 310.957 200.482C310.962 200.47 310.968 200.464 310.968 200.464C310.968 200.464 324.791 184.643 328.742 189.256L359.797 166.46V166.449C360.816 166.512 361.893 166.518 363.028 166.46C363.028 166.46 367.946 166.363 373.067 163.967L376.522 167.163L376.793 167.342L373.499 172.352L375.226 173.556L376.102 175.1L374.817 175.831C374.817 176.511 349.182 202.336 340.572 210.993C338.827 212.743 337.778 213.792 337.778 213.792C337.485 213.987 332.871 245.526 328.367 261.969L330.671 284.529C322.499 284.523 313.802 284.523 304.823 284.518L304.483 284.552C302.945 269.307 301.16 251.821 300.855 249.587C300.296 245.526 296.454 245.526 296.454 245.526H269.955C268.106 234.33 268.97 215.548 268.97 215.548L266.615 210.774L235.231 147.086L236.274 146.435L247.171 139.627L247.943 139.143L280.489 190.633C281.532 189.222 283.294 190.506 285.062 192.591C287.815 195.845 290.562 201.046 290.562 201.046C291.611 200.165 292.325 199.646 292.325 199.646L292.832 199.693L292.676 201.397C292.348 204.438 292.129 207.646 291.997 210.872C291.755 216.729 291.789 222.644 291.922 227.712C292.141 235.914 292.619 241.921 292.619 241.921C293.984 237.572 296.236 232.003 298.701 226.37Z" fill="#00C1FF"/>
<path d="M363.855 150.449C363.855 150.449 366.55 158.075 359.495 159.492C352.52 160.885 351.334 153.749 351.334 153.749C351.334 153.749 359.368 151.094 363.855 150.449Z" fill="white"/>
<path d="M358.638 140.889C358.874 140.267 359.289 139.829 359.813 139.754C360.781 139.616 361.731 140.739 361.95 142.259C362.163 143.774 361.553 145.116 360.591 145.254C359.629 145.387 358.673 144.269 358.46 142.749C358.362 142.058 358.437 141.407 358.638 140.889Z" fill="black"/>
<path d="M355.361 396.343C355.949 396.769 367.848 406.537 350.322 430.024C350.322 430.024 343.105 441.25 335.433 437.35C332.68 435.957 331.494 433.929 331.333 431.625C331.051 427.502 334.074 422.503 337.38 418.684C340.323 415.28 341.999 405.748 345.052 399.758C347.338 395.26 350.402 392.761 355.361 396.343Z" fill="black"/>
<path d="M346.97 143.14C347.212 142.674 347.575 142.363 348.013 142.3C348.975 142.167 349.931 143.284 350.144 144.805C350.363 146.325 349.752 147.662 348.79 147.8C347.828 147.938 346.872 146.815 346.659 145.295C346.544 144.471 346.671 143.693 346.97 143.14Z" fill="black"/>
<path d="M339.332 343.212L345.051 399.759C341.998 405.748 340.322 415.28 337.379 418.684C334.073 422.503 331.05 427.502 331.332 431.626H331.315L322.773 389.489L321.132 381.386L313.524 343.852L311.404 333.398H338.341L339.332 343.212Z" fill="#00C1FF"/>
<path d="M342.581 333.398C342.581 333.398 344.792 340.822 339.338 343.212H339.332L338.342 333.398H342.581Z" fill="#00C1FF"/>
<path d="M340.606 211.027C340.606 211.027 343.728 212.772 343.728 229.59C343.728 246.407 340.606 284.5 340.606 284.5V284.535C337.398 284.535 334.081 284.535 330.671 284.535L328.367 261.975C332.871 245.532 337.484 213.993 337.778 213.797C337.778 213.797 338.826 212.749 340.571 210.998L340.606 211.033V211.027Z" fill="white"/>
<path d="M328.055 168.361C328.522 169.225 328.787 170.521 328.735 172.387C328.631 176.332 327.215 178.509 325.631 179.713C323.54 181.303 321.161 181.187 321.161 181.187C320.706 183.912 319.854 186.129 318.823 187.926H318.817C315.696 193.374 310.967 194.953 310.967 194.953V200.464C310.967 200.464 310.967 200.47 310.956 200.482C307.8 204.421 298.769 206.276 298.769 206.276C294.242 204.444 292.675 201.397 292.675 201.397L292.831 199.693L293.107 196.606C293.107 196.606 289.001 196.289 285.349 192.321C283.333 190.12 281.45 186.791 280.488 181.769C280.171 180.134 279.958 178.319 279.866 176.309C279.751 173.735 279.878 171.333 280.189 169.104C282.199 154.608 291.886 147.489 292.065 147.823C300.859 164.111 318.282 164.427 318.282 164.427C318.806 167.532 321.161 170.515 321.161 170.515C321.507 168.338 326.259 165.003 328.055 168.355V168.361ZM304.16 174.293C305.144 174.247 305.876 172.877 305.795 171.229C305.715 169.588 304.851 168.292 303.866 168.338C302.881 168.39 302.149 169.761 302.23 171.402C302.311 173.049 303.175 174.345 304.16 174.293ZM299.028 188.22C307.195 187.367 305.651 179.846 305.651 179.846C299.88 179.725 291.633 181.308 291.633 181.308C291.633 181.308 290.861 189.066 299.028 188.22ZM290.337 176.021C291.322 175.975 292.053 174.604 291.973 172.957C291.892 171.316 291.028 170.02 290.043 170.066C289.058 170.118 288.327 171.489 288.407 173.13C288.488 174.777 289.352 176.073 290.337 176.021Z" fill="white"/>
<path d="M321.012 141.971C330.521 145.11 328.102 167.929 328.056 168.355C326.259 165.003 321.507 168.338 321.162 170.515C321.162 170.515 318.806 167.532 318.282 164.427C318.282 164.427 300.86 164.111 292.065 147.823C291.886 147.489 282.199 154.608 280.189 169.104C280.189 169.104 279.36 166.956 277.327 167.607C276.497 167.872 275.829 168.615 275.403 169.669C271.584 165.672 272.379 159.63 272.379 159.63C273.174 145.03 286.818 141.971 286.818 141.971C286.818 141.971 292.077 136.114 302.904 134.772C313.732 133.424 321.012 141.971 321.012 141.971Z" fill="black"/>
<path d="M325.631 179.713L325.723 179.834C323.73 186.135 318.967 187.874 318.823 187.926C319.854 186.129 320.707 183.912 321.162 181.187C321.162 181.187 323.54 181.303 325.631 179.713Z" fill="black"/>
<path d="M321.132 381.386L322.774 389.489L303.745 382.745V398.503H291.678V382.745L261.107 396.332V398.503H254.628L259.028 388.222C259.523 388.009 291.5 374.469 291.673 374.555H303.739L321.127 381.386H321.132Z" fill="white"/>
<path d="M305.069 311.449C307.298 310.343 306.826 307.936 306.826 307.936C306.826 307.936 305.841 298.058 304.672 286.418H317.239C318.996 286.418 319.623 288.112 319.623 288.112V292.057L310.691 313.494C309.942 315.561 307.31 315.751 307.31 315.751H216.472C213.73 315.751 213.604 311.996 213.604 311.996H302.27C303.497 311.996 304.401 311.783 305.064 311.449H305.069Z" fill="white"/>
<path d="M311.405 333.398L313.525 343.852H301.349H293.862H278.023H278.018L282.493 333.398H311.405Z" fill="#00C1FF"/>
<path d="M302.23 402.546C306.492 403.087 309.786 406.727 309.786 411.133C309.786 415.919 305.91 419.796 301.124 419.796C296.338 419.796 292.462 415.919 292.462 411.133C292.462 409.394 292.975 407.77 293.861 406.411C295.405 404.038 298.083 402.471 301.124 402.471C301.498 402.471 301.867 402.494 302.23 402.546Z" fill="black"/>
<path d="M208.755 245.526H296.454C296.454 245.526 300.295 245.526 300.854 249.587C301.159 251.821 302.945 269.307 304.482 284.552C304.546 285.18 304.609 285.802 304.672 286.418C305.842 298.058 306.826 307.936 306.826 307.936C306.826 307.936 307.299 310.343 305.07 311.449H305.064C304.402 311.783 303.497 311.996 302.271 311.996H213.604C213.604 311.996 210.978 312.232 210.027 308.252L207.015 284.506L202.54 249.183C202.54 249.183 202.31 247.651 203.392 246.569C203.94 246.027 204.821 245.601 206.226 245.532C206.347 245.526 206.474 245.526 206.6 245.526H208.755Z" fill="white"/>
<path d="M302.27 208.654L298.769 206.276C298.769 206.276 307.799 204.421 310.956 200.482C310.794 200.81 308.617 205.095 305.766 211.027L302.27 208.654Z" fill="white"/>
<path d="M305.795 171.223C305.875 172.871 305.144 174.241 304.159 174.288C303.174 174.339 302.31 173.043 302.23 171.396C302.149 169.755 302.881 168.384 303.865 168.332C304.85 168.286 305.714 169.582 305.795 171.223Z" fill="black"/>
<path d="M302.27 208.654L305.766 211.027C303.606 215.531 301.055 220.98 298.699 226.37L298.884 214.961L302.27 208.654Z" fill="white"/>
<path d="M305.65 179.84C305.65 179.84 307.194 187.361 299.027 188.214C290.86 189.06 291.632 181.302 291.632 181.302C291.632 181.302 299.879 179.719 305.65 179.84Z" fill="white"/>
<path d="M303.745 352.168V374.555H291.679V352.168H293.862H301.349H303.745Z" fill="white"/>
<path d="M302.271 208.654L298.884 214.961L298.7 226.37C296.235 232.003 293.983 237.572 292.618 241.921C292.618 241.921 292.14 235.914 291.921 227.712H291.996L295.734 214.863V208.649L295.59 208.435L298.769 206.276L302.271 208.654Z" fill="black"/>
<path d="M302.241 398.503V402.471L302.23 402.546C301.867 402.494 301.498 402.471 301.124 402.471C298.083 402.471 295.405 404.038 293.861 406.411V398.503H302.241Z" fill="black"/>
<path d="M301.349 343.852V352.168H293.861V352.018V343.852H301.349Z" fill="white"/>
<path d="M298.767 206.275L295.588 208.435L291.994 210.872C292.127 207.646 292.345 204.438 292.674 201.397C292.674 201.397 294.24 204.444 298.767 206.275Z" fill="white"/>
<path d="M295.733 208.648V214.863L291.996 227.712H291.921C291.788 222.644 291.754 216.729 291.996 210.872L295.59 208.435L295.733 208.648Z" fill="white"/>
<path d="M291.974 172.952C292.054 174.599 291.323 175.969 290.338 176.016C289.353 176.067 288.489 174.772 288.408 173.124C288.328 171.483 289.059 170.112 290.044 170.06C291.029 170.014 291.893 171.31 291.974 172.952Z" fill="black"/>
<path d="M282.493 333.398L278.018 343.852L259.035 388.217L254.635 398.503L252.97 402.385L246.583 417.319L240.634 431.211C240.697 427.174 237.766 422.376 234.569 418.684C232.588 416.392 231.182 411.312 229.541 406.411L233.728 392.807L236.637 383.367L250.056 339.803L252.026 333.398H282.499H282.493Z" fill="#00C1FF"/>
<path d="M275.403 169.669C275.829 168.615 276.497 167.872 277.327 167.607C279.36 166.956 280.189 169.104 280.189 169.104C279.878 171.333 279.751 173.735 279.867 176.309C279.959 178.319 280.172 180.133 280.489 181.769C280.489 181.769 276.555 180.571 275.294 175.733C274.683 173.372 274.792 171.189 275.403 169.669Z" fill="white"/>
<path d="M269.953 245.526H263.774C263.733 245.244 262.293 235.251 262.898 224.412C263.509 213.417 266.613 210.774 266.613 210.774L268.969 215.548C268.969 215.548 268.105 234.33 269.953 245.526Z" fill="white"/>
<path d="M259.028 405.167C260.503 406.722 261.407 408.824 261.407 411.133C261.407 415.919 257.531 419.796 252.745 419.796C250.429 419.796 248.321 418.886 246.772 417.405L246.576 417.319L252.963 402.385L253.188 402.483C255.48 402.598 257.542 403.606 259.028 405.167Z" fill="black"/>
<path d="M259.028 398.503C259.166 398.503 259.045 404.383 259.028 405.167C257.542 403.606 255.48 402.598 253.187 402.483L252.963 402.385L254.627 398.503H259.028Z" fill="black"/>
<path d="M235.23 200.464L218.96 191.963C218.28 202.054 217.37 212.26 216.673 219.58C216.057 225.996 215.602 230.212 215.602 230.212C217.837 232.32 217.681 234.981 217.226 236.714C216.938 237.803 216.541 238.528 216.541 238.528C216.316 238.609 216.091 238.69 215.861 238.765C213.454 239.611 210.919 240.285 208.316 240.815C207.533 240.982 206.744 241.132 205.949 241.264C203.196 241.742 200.385 242.076 197.586 242.301C195.599 242.456 193.624 242.56 191.671 242.618L191.458 242.474L196.164 235.511L186.914 175.739L188.619 171.149C190.301 172.099 192.339 173.009 194.396 173.349C194.396 173.349 195.524 168.545 193.618 159.63C194.689 159.134 195.663 158.582 196.55 157.971L196.786 158.317C196.786 158.317 214.145 159.97 221.528 162.187C221.528 162.187 222.778 163.264 221.528 165.447C221.528 165.447 246.064 182.806 253.027 195.701C259.99 208.591 235.668 220.749 225.894 226.572C225.894 226.572 225.537 226.192 224.955 225.483C223.728 223.986 221.523 221.026 219.657 217.098C219.478 216.729 219.305 216.349 219.138 215.963L235.23 200.464ZM205.938 196.214C216.045 196.214 212.791 180.842 212.791 180.842L197.915 180.208C197.915 180.208 193.768 196.214 205.938 196.214Z" fill="white"/>
<path d="M252.02 333.398L250.05 339.803C247.435 338.351 247.74 333.398 247.74 333.398H252.02Z" fill="#00C1FF"/>
<path d="M244.923 135.97L247.169 139.627L236.272 146.435L234.607 142.357L235.857 141.585L244.427 136.275L244.923 135.97Z" fill="white"/>
<path d="M241.491 121.497C242.85 121.387 244.256 121.877 245.315 123.708C248.195 128.667 243.662 134.922 243.662 134.922L244.428 136.275L235.858 141.585L234.309 138.804C228.492 139.863 227.524 133.476 227.524 133.476C228.596 133.292 229.494 132.618 229.869 131.558L229.88 131.489C231.47 131.771 232.996 131.207 233.336 129.445C234.678 130.044 235.939 129.525 236.958 128.172C236.768 128.039 236.59 127.872 236.423 127.682C235.403 126.501 235.663 125.367 236.106 124.601C236.452 123.996 236.907 123.616 236.941 123.616C236.993 123.616 239.17 121.675 241.491 121.497Z" fill="white"/>
<path d="M240.627 431.211C240.593 433.682 239.429 435.87 236.515 437.35C228.838 441.25 221.621 430.024 221.621 430.024C204.095 406.537 215.994 396.769 216.581 396.343C218.603 394.88 220.314 394.431 221.782 394.719C225.48 395.439 227.663 400.807 229.534 406.411C231.176 411.312 232.581 416.392 234.562 418.684C237.759 422.376 240.69 427.174 240.627 431.211Z" fill="black"/>
<path d="M241.49 121.496C239.169 121.675 236.992 123.616 236.94 123.616C236.906 123.616 236.451 123.996 236.105 124.601C235.005 123.184 233.916 121.139 233.801 119.365C233.715 118.052 234.17 116.889 235.552 116.244C238.616 114.81 241.139 120.765 241.49 121.496Z" fill="white"/>
<path d="M233.335 129.445C232.512 129.07 231.659 128.281 230.813 126.997C229.598 125.154 228.728 123.23 228.601 121.652C228.492 120.333 228.895 119.25 230.053 118.64C232.541 117.332 233.744 119.268 233.802 119.36C233.917 121.139 235.006 123.184 236.106 124.601C235.662 125.367 235.403 126.501 236.423 127.682C236.59 127.872 236.768 128.039 236.958 128.172C235.939 129.525 234.677 130.043 233.335 129.445Z" fill="white"/>
<path d="M229.161 333.398L236.631 383.367L233.722 392.807L233.348 392.692H221.869L208.018 333.398H229.161Z" fill="#00C1FF"/>
<path d="M233.722 392.807L229.534 406.411C227.663 400.807 225.48 395.439 221.782 394.719L221.869 394.299V392.692H233.347L233.722 392.807Z" fill="black"/>
<path d="M230.813 126.997C231.659 128.281 232.512 129.07 233.335 129.444C232.996 131.207 231.469 131.771 229.88 131.489C228.699 131.282 227.484 130.608 226.695 129.612C225.468 128.068 224.944 126.19 225.042 124.601C225.094 123.777 225.307 123.034 225.67 122.447C226.747 120.719 228.595 121.629 228.595 121.652H228.601C228.728 123.23 229.598 125.154 230.813 126.997Z" fill="white"/>
<path d="M229.879 131.489L229.868 131.558C229.494 132.618 228.595 133.292 227.524 133.476C226.251 133.695 224.736 133.228 223.556 131.898C221.384 129.444 221.327 126.697 222.461 125.303C223.59 123.915 225.042 124.601 225.042 124.601C224.944 126.19 225.468 128.068 226.695 129.611C227.484 130.608 228.699 131.282 229.879 131.489Z" fill="white"/>
<path d="M224.956 225.483L221.114 228.075C221.114 228.075 222.589 234.059 220.74 239.346L220.521 239.266C220.492 239.358 219.767 241.437 218.165 240.636C216.559 239.842 217.227 236.714 217.227 236.714C217.682 234.981 217.837 232.32 215.603 230.212C215.603 230.212 216.058 225.996 216.674 219.58L219.657 217.098C221.523 221.025 223.729 223.986 224.956 225.483Z" fill="white"/>
<path d="M215.861 238.77L216.817 244.04C214.796 244.605 212.751 245.065 210.781 245.451V245.526H208.754L208.316 240.821C210.92 240.285 213.454 239.611 215.861 238.765V238.77Z" fill="black"/>
<path d="M212.791 180.842C212.791 180.842 216.045 196.214 205.937 196.214C193.768 196.214 197.915 180.208 197.915 180.208L212.791 180.842Z" fill="white"/>
<path d="M206.808 130.642C209.371 130.493 210.77 133.787 210.609 136.84C210.448 139.898 208.374 143.244 204.723 144.241L204.585 144.223C205.184 139.979 204.729 135.861 204.124 132.987C204.124 132.987 204.233 130.792 206.802 130.642H206.808Z" fill="white"/>
<path d="M208.316 240.821L208.754 245.526H206.6C206.473 245.526 206.347 245.526 206.226 245.532L205.949 241.27C206.744 241.132 207.533 240.982 208.316 240.815V240.821Z" fill="#00C1FF"/>
<path d="M202.54 249.183L207.015 284.506C203.242 284.506 199.614 284.506 196.164 284.512V284.5L190.911 263.225L188.619 284.5V284.512C176.49 284.512 167.298 284.518 162.667 284.535L163.669 246.764L163.594 245.906H163.669C163.669 245.906 166.768 246.482 171.6 246.989C172.383 247.075 173.213 247.156 174.088 247.237C177.158 247.507 180.723 247.72 184.53 247.755L184.576 248.51C184.576 248.51 190.583 249.062 197.587 248.066V247.127C197.587 247.127 199.781 247.018 203.07 246.632L203.392 246.569C202.309 247.651 202.54 249.183 202.54 249.183Z" fill="#00C1FF"/>
<path d="M190.238 121.013C188.113 125.119 182.745 130.717 169.493 128.846C169.493 128.846 168.589 133.597 161.389 135.313C161.389 135.313 161.32 136.281 161.361 137.853H161.355C161.355 137.853 160.733 135.561 158.199 135.97C158.199 135.97 147.405 104.5 178.362 98.8158C178.362 98.8158 187.434 96.656 194.057 102.703C194.057 102.703 209.55 104.23 206.808 130.642C204.24 130.792 204.13 132.987 204.13 132.987C203.992 132.33 203.848 131.737 203.704 131.224C203.704 131.224 193.066 128.684 190.532 121.157L190.244 121.013H190.238Z" fill="black"/>
<path d="M205.95 241.27L206.226 245.532C204.821 245.601 203.94 246.027 203.392 246.569L203.07 246.632C199.781 247.018 197.587 247.127 197.587 247.127V242.301C200.386 242.076 203.197 241.742 205.95 241.264V241.27Z" fill="black"/>
<path d="M170.274 159.031C166.622 156.451 164.451 152.626 163.167 148.796C161.767 144.615 161.422 140.428 161.358 137.853C161.318 136.281 161.387 135.313 161.387 135.313C168.586 133.597 169.491 128.846 169.491 128.846C182.743 130.717 188.111 125.119 190.236 121.013L190.524 121.157C193.058 128.684 203.696 131.224 203.696 131.224C203.84 131.737 203.984 132.33 204.122 132.987C204.727 135.861 205.182 139.979 204.583 144.223C203.875 149.257 201.698 154.464 196.549 157.971C195.662 158.582 194.688 159.134 193.617 159.63C192.943 159.947 192.223 160.235 191.469 160.499C189.251 161.271 186.688 161.818 183.728 162.078C180.411 162.366 177.583 162.078 175.169 161.369C174.34 161.127 173.568 160.839 172.837 160.499C171.91 160.079 171.057 159.584 170.274 159.031ZM185.79 158.167C193.582 157.107 191.469 148.796 191.469 148.796C184.586 148.819 176.736 150.818 176.736 150.818C177.03 154.325 177.905 159.238 185.79 158.167ZM188.526 142.858C189.58 142.68 190.219 141.297 189.96 139.771C189.701 138.239 188.641 137.145 187.593 137.323C186.539 137.502 185.899 138.884 186.159 140.411C186.418 141.943 187.477 143.037 188.526 142.858ZM176.298 144.742C177.347 144.563 177.986 143.181 177.727 141.649C177.468 140.123 176.408 139.028 175.36 139.207C174.311 139.38 173.672 140.768 173.931 142.294C174.185 143.826 175.25 144.92 176.298 144.742Z" fill="white"/>
<path d="M197.587 247.127V248.066C190.583 249.063 184.576 248.51 184.576 248.51L184.53 247.755L184.236 242.675V242.623C185.855 242.664 187.519 242.681 189.212 242.664L189.305 242.572L190.549 243.827L191.459 242.474L191.672 242.618C193.624 242.56 195.6 242.456 197.587 242.301V247.127Z" fill="white"/>
<path d="M186.913 175.739L196.163 235.511L191.457 242.474L190.547 243.827L189.303 242.572L183.106 236.346C181.378 211.085 183.319 175.843 183.319 175.843L181.067 171.874C183.175 170.031 184.546 168.361 184.546 168.361C184.546 168.361 186.222 169.795 188.618 171.149L186.913 175.739Z" fill="#00C1FF"/>
<path d="M188.62 171.149C186.224 169.795 184.548 168.361 184.548 168.361C184.548 168.361 189.582 165.631 191.471 160.499C192.225 160.235 192.945 159.947 193.619 159.63C195.525 168.545 194.397 173.349 194.397 173.349C192.34 173.009 190.302 172.099 188.62 171.149Z" fill="white"/>
<path d="M191.47 148.796C191.47 148.796 193.584 157.107 185.791 158.167C177.906 159.238 177.031 154.325 176.737 150.818C176.737 150.818 184.587 148.819 191.47 148.796Z" fill="white"/>
<path d="M189.96 139.771C190.22 141.297 189.58 142.68 188.526 142.858C187.478 143.037 186.418 141.942 186.159 140.41C185.9 138.884 186.539 137.502 187.593 137.323C188.642 137.145 189.701 138.239 189.96 139.771Z" fill="black"/>
<path d="M155.762 195.776L155.492 195.805C139.244 205.469 117.888 209.006 117.162 195.805C116.431 182.599 122.98 152.661 122.98 152.661L124.368 152.753L135.564 153.49L136.601 153.559L137.223 179.379L150.734 171.143C149.191 169.651 150.32 168.361 150.32 168.361C157.841 163.437 168.093 159.532 170.276 159.031C171.059 159.584 171.912 160.079 172.839 160.499C172.695 169.478 176.312 175.221 176.312 175.221C178.092 174.293 179.727 173.049 181.069 171.874L183.321 175.843C183.321 175.843 181.38 211.085 183.108 236.346L189.305 242.572L189.213 242.664C187.52 242.681 185.855 242.664 184.237 242.623C180.557 242.537 177.118 242.318 174.1 242.059C173.236 241.984 172.407 241.904 171.612 241.823C167.558 241.414 164.545 240.959 163.18 240.74C162.656 240.66 162.38 240.608 162.38 240.608C159.471 237.382 161.862 232.602 161.862 232.602C158.487 219.108 156.465 202.227 155.762 195.776Z" fill="white"/>
<path d="M191.47 160.5C189.581 165.631 184.547 168.361 184.547 168.361C178.552 166.282 175.171 161.369 175.171 161.369C177.584 162.083 180.412 162.366 183.729 162.078C186.69 161.818 189.253 161.271 191.47 160.5Z" fill="white"/>
<path d="M184.237 242.675L184.531 247.755C180.724 247.721 177.159 247.508 174.089 247.237L174.1 247.127V242.059C177.118 242.318 180.557 242.537 184.237 242.624V242.675Z" fill="black"/>
<path d="M184.529 333.398L178.562 392.692H170.879H170.845L170.729 333.398H184.529Z" fill="#00C1FF"/>
<path d="M181.068 171.874C179.726 173.049 178.091 174.293 176.311 175.221C176.311 175.221 172.694 169.478 172.838 160.5C173.57 160.839 174.341 161.127 175.171 161.369C175.171 161.369 178.552 166.282 184.547 168.361C184.547 168.361 183.176 170.031 181.068 171.874Z" fill="white"/>
<path d="M178.563 392.692V404.239H170.88H170.869L170.846 392.692H170.88H178.563Z" fill="black"/>
<path d="M177.728 141.649C177.987 143.181 177.348 144.563 176.3 144.742C175.252 144.92 174.186 143.826 173.933 142.294C173.673 140.768 174.313 139.38 175.361 139.207C176.409 139.028 177.469 140.123 177.728 141.649Z" fill="black"/>
<path d="M174.099 242.059V247.127L174.088 247.237C173.212 247.156 172.383 247.076 171.6 246.989L171.611 246.88V241.823C172.406 241.904 173.235 241.984 174.099 242.059Z" fill="#00C1FF"/>
<path d="M171.61 241.823V246.88L171.599 246.989C166.767 246.482 163.668 245.9 163.668 245.9H163.593L163.167 240.821L163.179 240.74C164.543 240.959 167.556 241.414 171.61 241.823Z" fill="black"/>
<path d="M170.867 404.239L170.879 409.44L167.377 411.468V333.611V333.398H170.729L170.844 392.692L170.867 404.239Z" fill="black"/>
<path d="M167.378 333.611V411.468H159.326V404.101V395.433V333.398H167.378V333.611Z" fill="white"/>
<path d="M161.36 137.853C161.423 140.428 161.769 144.615 163.168 148.796C159.384 148.612 156.643 145.79 155.819 142.841C155.001 139.898 155.658 136.379 158.198 135.97C160.732 135.561 161.354 137.853 161.354 137.853H161.36Z" fill="white"/>
<path d="M159.327 395.433V404.101H146.823C146.823 404.101 147.146 400.311 151.667 398.503C156.194 396.7 159.327 395.433 159.327 395.433Z" fill="black"/>
<path d="M136.859 138.481C137.095 137.876 138.857 136.794 140.752 136.626C141.812 136.523 142.906 136.707 143.799 137.427C144.634 138.101 145.291 139.241 145.55 141.056C146.598 148.364 135.839 151.411 135.839 151.411L135.563 153.49L124.367 152.753L124.764 150.576C124.764 150.576 123.33 137.974 125.173 132.393C126.319 128.915 128.548 128.696 130.178 130.383C131.168 131.403 131.94 133.125 132.119 135.238C132.292 137.254 132.136 138.527 131.808 139.31C134.567 141.038 135.793 139.702 136.335 138.372L136.859 138.481Z" fill="white"/>
<path d="M143.897 130.28C145.389 132.779 144.859 136.39 143.799 137.427C142.906 136.707 141.812 136.523 140.752 136.627V136.598C141.524 134.282 141.121 131.057 139.762 129.358C139.762 129.358 142.405 127.786 143.897 130.28Z" fill="white"/>
<path d="M139.761 129.358C141.12 131.057 141.523 134.282 140.752 136.598V136.627C138.857 136.794 137.094 137.876 136.858 138.481L136.334 138.372C136.691 137.49 136.749 136.609 136.749 136.609C137.094 133.931 136.467 131.115 135.107 129.542C135.107 129.542 135.683 127.601 138.218 128.281C138.822 128.442 139.335 128.828 139.761 129.358Z" fill="white"/>
<path d="M135.108 129.542C136.467 131.115 137.095 133.931 136.749 136.609C136.749 136.609 136.692 137.49 136.335 138.372C135.793 139.702 134.566 141.038 131.808 139.31C132.136 138.527 132.291 137.254 132.119 135.238C131.94 133.125 131.168 131.403 130.178 130.383C130.178 130.383 130.69 127.757 133.276 128.373C133.979 128.54 134.595 128.955 135.108 129.542Z" fill="white"/>
<path d="M103.392 333.398V451.68L99.5674 454.076V333.398H103.392Z" fill="black"/>
<path d="M99.5662 333.398H89.9307V454.076H99.5662V333.398Z" fill="white"/>
<path d="M191.584 117.062C191.584 117.062 191.365 118.824 190.236 121.013C188.111 125.119 182.743 130.717 169.491 128.845C169.491 128.845 168.586 133.597 161.387 135.313C161.387 135.313 161.318 136.281 161.358 137.853C161.422 140.428 161.767 144.615 163.167 148.796C164.451 152.626 166.622 156.451 170.274 159.031C171.057 159.584 171.91 160.079 172.837 160.499C173.568 160.839 174.34 161.127 175.169 161.369C177.583 162.083 180.411 162.365 183.728 162.077C186.688 161.818 189.251 161.271 191.469 160.499C192.223 160.234 192.943 159.947 193.617 159.63C194.688 159.134 195.662 158.582 196.549 157.971C201.698 154.464 203.875 149.257 204.583 144.223C205.182 139.978 204.727 135.86 204.122 132.987C203.984 132.33 203.84 131.737 203.696 131.224C203.696 131.224 193.058 128.684 190.524 121.157" stroke="black" stroke-width="2" stroke-linecap="round" stroke-linejoin="round"/>
<path d="M161.354 137.853C161.354 137.853 160.732 135.561 158.198 135.97C155.658 136.379 155.001 139.898 155.819 142.841C156.643 145.79 159.384 148.612 163.168 148.796" stroke="black" stroke-width="2" stroke-linecap="round" stroke-linejoin="round"/>
<path d="M204.129 132.987C204.129 132.987 204.238 130.792 206.807 130.642C209.37 130.493 210.77 133.787 210.608 136.84C210.447 139.898 208.374 143.244 204.722 144.241" stroke="black" stroke-width="2" stroke-linecap="round" stroke-linejoin="round"/>
<path d="M158.199 135.97C158.199 135.97 147.405 104.5 178.362 98.8158C178.362 98.8158 187.434 96.656 194.057 102.703C194.057 102.703 209.55 104.23 206.808 130.642" stroke="black" stroke-width="2" stroke-linecap="round" stroke-linejoin="round"/>
<path d="M180.532 143.227C180.532 143.129 185.111 141.51 184.495 145.853" stroke="black" stroke-width="2" stroke-linecap="round" stroke-linejoin="round"/>
<path d="M170.021 136.609C170.091 136.511 172.164 132.422 177.094 134.403" stroke="black" stroke-width="2" stroke-linecap="round" stroke-linejoin="round"/>
<path d="M183.713 133.465C183.615 133.43 186.31 129.992 191.471 132.912" stroke="black" stroke-width="2" stroke-linecap="round" stroke-linejoin="round"/>
<path d="M176.737 150.818C176.737 150.818 184.587 148.819 191.47 148.796C191.47 148.796 193.584 157.107 185.791 158.167C177.906 159.238 177.031 154.325 176.737 150.818Z" stroke="black" stroke-width="2" stroke-linecap="round" stroke-linejoin="round"/>
<path d="M175.171 161.369C175.171 161.369 178.552 166.282 184.547 168.361C184.547 168.361 189.581 165.631 191.47 160.5" stroke="black" stroke-width="2" stroke-linecap="round" stroke-linejoin="round"/>
<path d="M172.838 160.499C172.694 169.478 176.311 175.221 176.311 175.221C178.091 174.293 179.726 173.049 181.068 171.874C183.176 170.031 184.547 168.361 184.547 168.361C184.547 168.361 186.223 169.795 188.619 171.149C190.301 172.099 192.34 173.009 194.396 173.349C194.396 173.349 195.525 168.545 193.618 159.63" stroke="black" stroke-width="2" stroke-linecap="round" stroke-linejoin="round"/>
<path d="M181.067 171.869L183.319 175.843C183.319 175.843 181.378 211.085 183.106 236.346L189.303 242.572L190.547 243.827L191.457 242.474L196.163 235.511L186.913 175.739L188.618 171.149" stroke="black" stroke-width="2" stroke-linecap="round" stroke-linejoin="round"/>
<path d="M170.697 159.002C170.685 158.962 170.535 158.973 170.276 159.031C168.093 159.532 157.841 163.437 150.32 168.361C150.32 168.361 149.191 169.651 150.734 171.143L137.223 179.379L136.601 153.559L135.564 153.49L124.368 152.753L122.98 152.661C122.98 152.661 116.431 182.599 117.162 195.805C117.888 209.006 139.244 205.469 155.492 195.805" stroke="black" stroke-width="2" stroke-linecap="round" stroke-linejoin="round"/>
<path d="M191.672 242.618C193.624 242.56 195.6 242.456 197.587 242.301C200.386 242.076 203.197 241.742 205.95 241.264C206.744 241.132 207.533 240.982 208.317 240.815C210.92 240.285 213.454 239.611 215.862 238.765C216.092 238.69 216.317 238.609 216.541 238.528C216.541 238.528 216.939 237.803 217.227 236.714C217.682 234.981 217.837 232.32 215.602 230.212C215.602 230.212 216.057 225.996 216.674 219.58C217.371 212.26 218.281 202.054 218.96 191.963C219.024 191.059 219.081 190.155 219.139 189.256" stroke="black" stroke-width="2" stroke-linecap="round" stroke-linejoin="round"/>
<path d="M155.491 193.098C155.491 193.098 155.583 194.077 155.762 195.776C156.465 202.227 158.486 219.108 161.861 232.602C161.861 232.602 159.471 237.382 162.38 240.608C162.38 240.608 162.656 240.66 163.18 240.74C164.545 240.959 167.557 241.414 171.612 241.823C172.407 241.904 173.236 241.984 174.1 242.059C177.118 242.318 180.556 242.537 184.237 242.624C185.855 242.664 187.52 242.681 189.213 242.664" stroke="black" stroke-width="2" stroke-linecap="round" stroke-linejoin="round"/>
<path d="M151.258 173.556C151.258 173.556 152.709 183.952 154.892 189.775" stroke="black" stroke-width="2" stroke-linecap="round" stroke-linejoin="round"/>
<path d="M221.113 167.422C221.113 167.422 220.802 179.69 219.138 186.757" stroke="black" stroke-width="2" stroke-linecap="round" stroke-linejoin="round"/>
<path d="M196.786 158.317C196.786 158.317 214.145 159.97 221.529 162.187C221.529 162.187 222.779 163.264 221.529 165.447C221.529 165.447 246.064 182.806 253.027 195.701C259.99 208.591 235.668 220.749 225.894 226.572C225.894 226.572 225.537 226.192 224.956 225.483C223.729 223.986 221.523 221.026 219.657 217.098C219.478 216.729 219.306 216.349 219.139 215.963L235.23 200.464L236.083 199.646L241.906 200.378" stroke="black" stroke-width="2" stroke-linecap="round" stroke-linejoin="round"/>
<path d="M236.082 199.646L239.722 197.464" stroke="black" stroke-width="2" stroke-linecap="round" stroke-linejoin="round"/>
<path d="M218.96 191.963L235.23 200.464" stroke="black" stroke-width="2" stroke-linecap="round" stroke-linejoin="round"/>
<path d="M197.915 180.208L212.791 180.842C212.791 180.842 216.045 196.214 205.937 196.214C193.768 196.214 197.915 180.208 197.915 180.208Z" stroke="black" stroke-width="2" stroke-linecap="round" stroke-linejoin="round"/>
<path d="M124.367 152.753L124.764 150.576C124.764 150.576 123.33 137.974 125.173 132.393C126.319 128.915 128.548 128.696 130.178 130.383C131.168 131.403 131.94 133.125 132.119 135.238C132.292 137.254 132.136 138.527 131.808 139.31C131.22 140.71 130.086 140.577 129.256 140.359C127.966 140.019 126.872 138.971 126.67 135.238" stroke="black" stroke-width="2" stroke-linecap="round" stroke-linejoin="round"/>
<path d="M130.178 130.383C130.178 130.383 130.69 127.757 133.276 128.373C133.979 128.54 134.595 128.955 135.108 129.542C136.467 131.115 137.095 133.931 136.749 136.609C136.749 136.609 136.692 137.49 136.335 138.372C135.793 139.702 134.566 141.038 131.808 139.31" stroke="black" stroke-width="2" stroke-linecap="round" stroke-linejoin="round"/>
<path d="M135.562 153.49L135.839 151.411C135.839 151.411 146.598 148.364 145.549 141.055C145.29 139.241 144.634 138.101 143.799 137.427C142.906 136.707 141.811 136.523 140.752 136.626C138.857 136.793 137.095 137.876 136.858 138.481C136.853 138.504 136.847 138.527 136.841 138.544C136.582 139.754 135.643 143.636 141.339 142.357" stroke="black" stroke-width="2" stroke-linecap="round" stroke-linejoin="round"/>
<path d="M135.107 129.542C135.107 129.542 135.683 127.601 138.218 128.281C138.822 128.442 139.335 128.828 139.761 129.358C141.12 131.057 141.523 134.282 140.752 136.598" stroke="black" stroke-width="2" stroke-linecap="round" stroke-linejoin="round"/>
<path d="M139.762 129.358C139.762 129.358 142.405 127.786 143.897 130.28C145.389 132.779 144.859 136.39 143.799 137.427" stroke="black" stroke-width="2" stroke-linecap="round" stroke-linejoin="round"/>
<path d="M132.373 141.706C132.373 141.706 133.698 143.146 133.894 147.086" stroke="black" stroke-width="2" stroke-linecap="round" stroke-linejoin="round"/>
<path d="M219.655 217.098L216.672 219.58" stroke="black" stroke-width="2" stroke-linecap="round" stroke-linejoin="round"/>
<path d="M224.956 225.483L221.115 228.075C221.115 228.075 222.589 234.059 220.74 239.346C220.061 241.299 218.92 243.159 217.089 244.582" stroke="black" stroke-width="2" stroke-linecap="round" stroke-linejoin="round"/>
<path d="M220.521 239.266C220.492 239.358 219.766 241.437 218.165 240.636C216.558 239.841 217.227 236.714 217.227 236.714" stroke="black" stroke-width="2" stroke-linecap="round" stroke-linejoin="round"/>
<path d="M318.823 187.926C319.854 186.129 320.707 183.912 321.162 181.187C321.162 181.187 323.54 181.303 325.631 179.713C327.215 178.509 328.632 176.332 328.735 172.387C328.787 170.521 328.522 169.225 328.056 168.361" stroke="black" stroke-width="2" stroke-linecap="round" stroke-linejoin="round"/>
<path d="M310.968 200.464V194.953C310.968 194.953 315.696 193.374 318.818 187.926" stroke="black" stroke-width="2" stroke-linecap="round" stroke-linejoin="round"/>
<path d="M328.055 168.355C326.259 165.003 321.507 168.338 321.161 170.515C321.161 170.515 318.806 167.532 318.282 164.427C318.282 164.427 300.859 164.111 292.065 147.823C291.886 147.489 282.199 154.608 280.189 169.104C279.878 171.333 279.751 173.735 279.866 176.309C279.958 178.319 280.171 180.134 280.488 181.769C281.45 186.791 283.333 190.12 285.349 192.321C289.001 196.289 293.107 196.606 293.107 196.606L292.831 199.693L292.675 201.397C292.675 201.397 294.242 204.444 298.769 206.276C298.769 206.276 307.8 204.421 310.956 200.482" stroke="black" stroke-width="2" stroke-linecap="round" stroke-linejoin="round"/>
<path d="M299.904 162.187C299.904 162.187 303.13 158.887 307.743 162.803" stroke="black" stroke-width="2" stroke-linecap="round" stroke-linejoin="round"/>
<path d="M291.979 163.851C291.979 163.851 287.97 161.501 285.793 165.331" stroke="black" stroke-width="2" stroke-linecap="round" stroke-linejoin="round"/>
<path d="M298.071 173.193C298.071 173.193 293.527 172.917 295.215 176.511" stroke="black" stroke-width="2" stroke-linecap="round" stroke-linejoin="round"/>
<path d="M291.632 181.302C291.632 181.302 299.879 179.719 305.65 179.84C305.65 179.84 307.194 187.361 299.027 188.214C290.86 189.06 291.632 181.302 291.632 181.302Z" stroke="black" stroke-width="2" stroke-linecap="round" stroke-linejoin="round"/>
<path d="M280.189 169.104C280.189 169.104 279.36 166.956 277.327 167.607C276.497 167.872 275.829 168.615 275.403 169.669C274.792 171.189 274.683 173.372 275.294 175.733C276.555 180.571 280.489 181.769 280.489 181.769" stroke="black" stroke-width="2" stroke-linecap="round" stroke-linejoin="round"/>
<path d="M318.816 187.926H318.822C318.966 187.874 323.729 186.135 325.722 179.834" stroke="black" stroke-width="2" stroke-linecap="round" stroke-linejoin="round"/>
<path d="M328.056 168.361C328.102 167.929 330.521 145.11 321.012 141.971C321.012 141.971 313.732 133.424 302.904 134.772C292.077 136.114 286.818 141.971 286.818 141.971C286.818 141.971 273.174 145.03 272.379 159.63C272.379 159.63 271.584 165.672 275.403 169.669H275.409" stroke="black" stroke-width="2" stroke-linecap="round" stroke-linejoin="round"/>
<path d="M359.796 166.461L328.741 189.256C324.79 184.643 310.967 200.464 310.967 200.464C310.967 200.464 310.967 200.47 310.956 200.482C310.794 200.81 308.617 205.095 305.766 211.027C303.607 215.531 301.055 220.98 298.7 226.37C296.235 232.003 293.983 237.572 292.618 241.921C292.618 241.921 292.14 235.914 291.921 227.712C291.788 222.644 291.754 216.729 291.996 210.872C292.128 207.646 292.347 204.438 292.675 201.397" stroke="black" stroke-width="2" stroke-linecap="round" stroke-linejoin="round"/>
<path d="M291.994 210.872L295.588 208.435L298.767 206.276L302.269 208.654L305.765 211.027" stroke="black" stroke-width="2" stroke-linecap="round" stroke-linejoin="round"/>
<path d="M295.732 208.648V214.863L291.994 227.712" stroke="black" stroke-width="2" stroke-linecap="round" stroke-linejoin="round"/>
<path d="M302.27 208.648V208.654L298.883 214.961L298.699 226.37L298.693 226.572" stroke="black" stroke-width="2" stroke-linecap="round" stroke-linejoin="round"/>
<path d="M292.323 199.646C292.323 199.646 291.608 200.165 290.56 201.046C288.729 202.572 285.872 205.175 283.954 207.957C283.954 207.957 288.884 210.941 288.884 211.027C288.821 211.067 282.491 215.963 282.491 215.963C282.491 215.963 285.814 230.828 290.192 240.072" stroke="black" stroke-width="2" stroke-linecap="round" stroke-linejoin="round"/>
<path d="M295.243 240.821C295.635 240.659 310.333 225.858 315.102 217.097L310.425 213.21L317.239 210.388C317.239 210.388 315.102 200.199 315.004 199.646" stroke="black" stroke-width="2" stroke-linecap="round" stroke-linejoin="round"/>
<path d="M290.562 201.046C290.562 201.046 287.815 195.845 285.062 192.591C283.294 190.506 281.532 189.222 280.489 190.633L247.943 139.143L247.171 139.627L236.274 146.435L235.231 147.086L266.615 210.774L268.97 215.548C268.97 215.548 268.106 234.33 269.955 245.526" stroke="black" stroke-width="2" stroke-linecap="round" stroke-linejoin="round"/>
<path d="M330.671 284.552V284.529L328.367 261.969C332.871 245.526 337.484 213.987 337.778 213.792C337.778 213.792 338.826 212.743 340.571 210.993C349.182 202.336 374.817 176.511 374.817 175.831C374.817 175.825 374.817 175.82 374.811 175.82" stroke="black" stroke-width="2" stroke-linecap="round" stroke-linejoin="round"/>
<path d="M328.366 191.508C328.044 191.894 327.946 204.312 333.884 215.963" stroke="black" stroke-width="2" stroke-linecap="round" stroke-linejoin="round"/>
<path d="M278.794 192.919C278.794 192.919 274.141 201.53 271.497 213.987" stroke="black" stroke-width="2" stroke-linecap="round" stroke-linejoin="round"/>
<path d="M247.169 139.627L244.923 135.97L244.427 136.275L235.857 141.585L234.607 142.357L236.272 146.435" stroke="black" stroke-width="2" stroke-linecap="round" stroke-linejoin="round"/>
<path d="M244.429 136.275L243.663 134.922C243.663 134.922 248.195 128.667 245.316 123.708C244.256 121.877 242.851 121.387 241.491 121.497C239.17 121.675 236.993 123.616 236.941 123.616C236.907 123.616 236.452 123.996 236.106 124.601C235.663 125.367 235.404 126.501 236.423 127.682C236.59 127.872 236.769 128.039 236.959 128.172C238.882 129.542 241.992 128.224 243.11 126.53" stroke="black" stroke-width="2" stroke-linecap="round" stroke-linejoin="round"/>
<path d="M233.802 119.366C233.917 121.14 235.005 123.184 236.106 124.601" stroke="black" stroke-width="2" stroke-linecap="round" stroke-linejoin="round"/>
<path d="M241.53 121.571C241.53 121.571 241.513 121.543 241.49 121.496C241.139 120.765 238.616 114.81 235.552 116.244C234.17 116.889 233.715 118.052 233.801 119.36" stroke="black" stroke-width="2" stroke-linecap="round" stroke-linejoin="round"/>
<path d="M233.802 119.365C233.744 119.268 232.541 117.332 230.053 118.64C228.895 119.25 228.492 120.333 228.601 121.652C228.728 123.23 229.598 125.154 230.813 126.997C231.659 128.281 232.512 129.07 233.335 129.445C234.677 130.044 235.939 129.525 236.958 128.172" stroke="black" stroke-width="2" stroke-linecap="round" stroke-linejoin="round"/>
<path d="M228.595 121.652C228.595 121.652 226.747 120.719 225.67 122.447C225.307 123.034 225.094 123.777 225.042 124.601C224.944 126.191 225.468 128.068 226.695 129.612C227.484 130.608 228.699 131.282 229.88 131.489C231.469 131.771 232.996 131.207 233.335 129.445" stroke="black" stroke-width="2" stroke-linecap="round" stroke-linejoin="round"/>
<path d="M225.042 124.601C225.042 124.601 223.59 123.915 222.461 125.303C221.327 126.697 221.384 129.444 223.556 131.898C224.736 133.228 226.251 133.695 227.524 133.476C228.595 133.292 229.494 132.618 229.868 131.558" stroke="black" stroke-width="2" stroke-linecap="round" stroke-linejoin="round"/>
<path d="M227.524 133.476C227.524 133.476 228.492 139.863 234.309 138.804L235.858 141.586" stroke="black" stroke-width="2" stroke-linecap="round" stroke-linejoin="round"/>
<path d="M305.064 311.449C304.402 311.783 303.497 311.996 302.271 311.996H213.604C213.604 311.996 210.978 312.232 210.027 308.252L207.015 284.506L202.54 249.183C202.54 249.183 202.31 247.651 203.392 246.569C203.94 246.027 204.821 245.601 206.226 245.532C206.347 245.526 206.474 245.526 206.6 245.526H296.454C296.454 245.526 300.295 245.526 300.854 249.587C301.159 251.821 302.945 269.307 304.482 284.552C304.546 285.18 304.609 285.802 304.672 286.418C305.842 298.058 306.826 307.936 306.826 307.936C306.826 307.936 307.299 310.343 305.07 311.449" stroke="black" stroke-width="2" stroke-linecap="round" stroke-linejoin="round"/>
<path d="M215.861 238.77L216.817 244.04L216.921 244.61L217.088 245.526" stroke="black" stroke-width="2" stroke-linecap="round" stroke-linejoin="round"/>
<path d="M213.604 311.996C213.604 311.996 213.73 315.751 216.472 315.751H307.31C307.31 315.751 309.942 315.561 310.691 313.494L319.623 292.057V288.112C319.623 288.112 318.996 286.418 317.239 286.418H304.695" stroke="black" stroke-width="2" stroke-linecap="round" stroke-linejoin="round"/>
<path d="M305.063 311.449H305.069C305.231 311.443 308.26 311.288 308.721 309.825L317.746 288.768" stroke="black" stroke-width="2" stroke-linecap="round" stroke-linejoin="round"/>
<path d="M163.168 240.821L163.594 245.906L163.669 246.765L162.667 284.535V284.552" stroke="black" stroke-width="2" stroke-linecap="round" stroke-linejoin="round"/>
<path d="M184.236 242.675L184.53 247.755L184.576 248.51C184.576 248.51 190.583 249.063 197.587 248.066V242.301" stroke="black" stroke-width="2" stroke-linecap="round" stroke-linejoin="round"/>
<path d="M163.67 245.901C163.67 245.901 166.769 246.482 171.601 246.989C172.384 247.075 173.213 247.156 174.089 247.237C177.159 247.507 180.724 247.72 184.531 247.755" stroke="black" stroke-width="2" stroke-linecap="round" stroke-linejoin="round"/>
<path d="M210.781 245.451C212.751 245.065 214.796 244.605 216.817 244.04" stroke="black" stroke-width="2" stroke-linecap="round" stroke-linejoin="round"/>
<path d="M197.587 247.127C197.587 247.127 199.781 247.018 203.07 246.632" stroke="black" stroke-width="2" stroke-linecap="round" stroke-linejoin="round"/>
<path d="M171.611 241.823V246.88" stroke="black" stroke-width="2" stroke-linecap="round" stroke-linejoin="round"/>
<path d="M174.1 242.059V247.127" stroke="black" stroke-width="2" stroke-linecap="round" stroke-linejoin="round"/>
<path d="M205.949 241.27L206.226 245.532" stroke="black" stroke-width="2" stroke-linecap="round" stroke-linejoin="round"/>
<path d="M208.316 240.821L208.754 245.526V245.532" stroke="black" stroke-width="2" stroke-linecap="round" stroke-linejoin="round"/>
<path d="M304.821 284.518C313.8 284.523 322.497 284.523 330.67 284.529C334.079 284.529 337.397 284.529 340.605 284.529C344.055 284.529 347.378 284.529 350.557 284.529" stroke="black" stroke-width="2" stroke-linecap="round" stroke-linejoin="round"/>
<path d="M386.093 284.552H387.809L405.174 311.996L414.107 326.124H89.9307L159.326 284.552C159.326 284.552 160.495 284.535 162.667 284.535C167.297 284.518 176.489 284.512 188.619 284.512C191.026 284.506 193.543 284.506 196.164 284.512C199.614 284.506 203.242 284.506 207.014 284.506" stroke="black" stroke-width="2" stroke-linecap="round" stroke-linejoin="round"/>
<path d="M89.9307 326.124V333.398H99.5662H103.39H159.326H167.378H170.73H184.53H208.017H229.16H247.74H252.019H282.492H311.405H338.341H342.58H377.005H379.608H387.809H401.189H404.397H414.032H414.107V326.124" stroke="black" stroke-width="2" stroke-linecap="round" stroke-linejoin="round"/>
<path d="M89.9307 333.398V454.076H99.5662V333.398" stroke="black" stroke-width="2" stroke-linecap="round" stroke-linejoin="round"/>
<path d="M404.397 333.398V454.076H414.033V407.966V399.759V333.398" stroke="black" stroke-width="2" stroke-linecap="round" stroke-linejoin="round"/>
<path d="M404.397 454.076L400.981 448.075L401.189 333.398" stroke="black" stroke-width="2" stroke-linecap="round" stroke-linejoin="round"/>
<path d="M159.326 333.398V395.433V404.101V411.468H167.378V333.611" stroke="black" stroke-width="2" stroke-linecap="round" stroke-linejoin="round"/>
<path d="M170.729 333.398L170.844 392.692L170.867 404.239L170.879 409.44L167.377 411.468" stroke="black" stroke-width="2" stroke-linecap="round" stroke-linejoin="round"/>
<path d="M387.809 333.398V410.534H379.607V333.398" stroke="black" stroke-width="2" stroke-linecap="round" stroke-linejoin="round"/>
<path d="M377.005 333.398V405.61L379.608 410.534" stroke="black" stroke-width="2" stroke-linecap="round" stroke-linejoin="round"/>
<path d="M103.392 333.398V451.68L99.5674 454.076" stroke="black" stroke-width="2" stroke-linecap="round" stroke-linejoin="round"/>
<path d="M252.019 333.398L250.049 339.803L236.63 383.367L233.721 392.807L229.534 406.411" stroke="black" stroke-width="2" stroke-linecap="round" stroke-linejoin="round"/>
<path d="M259.027 388.222L254.627 398.503L252.963 402.385L246.575 417.319L240.626 431.211L239.722 433.33" stroke="black" stroke-width="2" stroke-linecap="round" stroke-linejoin="round"/>
<path d="M282.491 333.398L278.016 343.852L259.033 388.217" stroke="black" stroke-width="2" stroke-linecap="round" stroke-linejoin="round"/>
<path d="M221.782 394.719C220.314 394.431 218.603 394.88 216.581 396.343C215.994 396.769 204.095 406.537 221.621 430.024C221.621 430.024 228.838 441.25 236.515 437.35C239.429 435.87 240.593 433.682 240.627 431.211C240.69 427.174 237.759 422.376 234.562 418.684C232.581 416.392 231.176 411.312 229.534 406.411C227.663 400.807 225.48 395.439 221.782 394.719Z" stroke="black" stroke-width="2" stroke-linecap="round" stroke-linejoin="round"/>
<path d="M345.052 399.758C347.338 395.26 350.402 392.761 355.361 396.343C355.949 396.769 367.848 406.537 350.322 430.024C350.322 430.024 343.105 441.25 335.433 437.35C332.68 435.957 331.494 433.929 331.333 431.625C331.051 427.502 334.074 422.503 337.38 418.684C340.323 415.28 341.999 405.748 345.052 399.758Z" stroke="black" stroke-width="2" stroke-linecap="round" stroke-linejoin="round"/>
<path d="M311.404 333.398L313.524 343.852L321.132 381.386L322.773 389.489L331.315 431.626" stroke="black" stroke-width="2" stroke-linecap="round" stroke-linejoin="round"/>
<path d="M338.342 333.398L339.332 343.212L345.052 399.759" stroke="black" stroke-width="2" stroke-linecap="round" stroke-linejoin="round"/>
<path d="M247.74 333.398C247.74 333.398 247.435 338.351 250.05 339.803" stroke="black" stroke-width="2" stroke-linecap="round" stroke-linejoin="round"/>
<path d="M278.022 343.852H293.861H301.348H313.524" stroke="black" stroke-width="2" stroke-linecap="round" stroke-linejoin="round"/>
<path d="M342.581 333.398C342.581 333.398 344.793 340.822 339.339 343.212" stroke="black" stroke-width="2" stroke-linecap="round" stroke-linejoin="round"/>
<path d="M340.605 211.027C340.605 211.027 343.727 212.772 343.727 229.59C343.727 246.408 340.605 284.501 340.605 284.501" stroke="black" stroke-width="2" stroke-linecap="round" stroke-linejoin="round"/>
<path d="M266.613 210.774C266.613 210.774 263.509 213.417 262.898 224.412C262.293 235.251 263.733 245.244 263.774 245.526" stroke="black" stroke-width="2" stroke-linecap="round" stroke-linejoin="round"/>
<path d="M293.861 343.852V352.018" stroke="black" stroke-width="2" stroke-linecap="round" stroke-linejoin="round"/>
<path d="M301.349 343.852V352.168" stroke="black" stroke-width="2" stroke-linecap="round" stroke-linejoin="round"/>
<path d="M291.679 374.555H303.745V352.168H301.349H293.862H291.679V374.555Z" stroke="black" stroke-width="2" stroke-linecap="round" stroke-linejoin="round"/>
<path d="M291.678 374.555C291.505 374.469 259.529 388.009 259.033 388.217" stroke="black" stroke-width="2" stroke-linecap="round" stroke-linejoin="round"/>
<path d="M254.628 398.503H259.028H261.107V396.332L291.678 382.745V398.503H293.861H302.241H303.745V382.745L322.774 389.489" stroke="black" stroke-width="2" stroke-linecap="round" stroke-linejoin="round"/>
<path d="M303.745 374.555L321.133 381.386" stroke="black" stroke-width="2" stroke-linecap="round" stroke-linejoin="round"/>
<path d="M302.23 402.546C306.492 403.087 309.786 406.727 309.786 411.133C309.786 415.919 305.91 419.796 301.124 419.796C296.338 419.796 292.462 415.919 292.462 411.133C292.462 409.394 292.975 407.77 293.861 406.411C295.405 404.038 298.083 402.471 301.124 402.471C301.498 402.471 301.867 402.494 302.23 402.546Z" stroke="black" stroke-width="2" stroke-linecap="round" stroke-linejoin="round"/>
<path d="M253.188 402.483C255.481 402.598 257.543 403.606 259.029 405.167C260.503 406.722 261.407 408.824 261.407 411.134C261.407 415.92 257.531 419.796 252.745 419.796C250.43 419.796 248.322 418.886 246.772 417.406" stroke="black" stroke-width="2" stroke-linecap="round" stroke-linejoin="round"/>
<path d="M293.861 398.503V406.411" stroke="black" stroke-width="2" stroke-linecap="round" stroke-linejoin="round"/>
<path d="M302.241 398.503V402.471" stroke="black" stroke-width="2" stroke-linecap="round" stroke-linejoin="round"/>
<path d="M259.028 398.503C259.167 398.503 259.046 404.383 259.028 405.167V405.253" stroke="black" stroke-width="2" stroke-linecap="round" stroke-linejoin="round"/>
<path d="M188.619 284.5L190.911 263.225L196.164 284.5" stroke="black" stroke-width="2" stroke-linecap="round" stroke-linejoin="round"/>
<path d="M184.53 333.398L178.563 392.692H170.88" stroke="black" stroke-width="2" stroke-linecap="round" stroke-linejoin="round"/>
<path d="M178.563 392.692V404.239H170.88" stroke="black" stroke-width="2" stroke-linecap="round" stroke-linejoin="round"/>
<path d="M159.327 395.433C159.327 395.433 156.194 396.7 151.667 398.503C147.146 400.311 146.823 404.101 146.823 404.101H159.327" stroke="black" stroke-width="2" stroke-linecap="round" stroke-linejoin="round"/>
<path d="M208.018 333.398L221.869 392.692H233.348" stroke="black" stroke-width="2" stroke-linecap="round" stroke-linejoin="round"/>
<path d="M229.161 333.398L236.631 383.367" stroke="black" stroke-width="2" stroke-linecap="round" stroke-linejoin="round"/>
<path d="M221.868 392.692V394.299" stroke="black" stroke-width="2" stroke-linecap="round" stroke-linejoin="round"/>
<path d="M385.074 154.389L383.346 152.626C383.928 150.812 384.296 148.756 384.389 146.435C384.389 146.435 391.795 143.354 388.835 134.628C385.869 125.902 379.17 132.739 380.443 137.819C380.443 137.819 377.126 137.594 375.646 133.476C375.646 133.476 362.531 136.269 361.616 119.273C361.593 118.853 349.768 120.563 342.932 128.978C342.932 128.978 338.088 151.653 348.403 161.743C351.07 164.358 354.756 166.132 359.796 166.449C360.815 166.512 361.892 166.518 363.027 166.46C363.027 166.46 367.945 166.362 373.065 163.967L376.521 167.163" stroke="black" stroke-width="2" stroke-linecap="round" stroke-linejoin="round"/>
<path d="M345.812 142.023C345.812 142.023 346.077 142.783 346.97 143.14C347.114 143.198 347.281 143.25 347.465 143.279" stroke="black" stroke-width="2" stroke-linecap="round" stroke-linejoin="round"/>
<path d="M357.331 139.719C357.331 139.719 357.625 140.566 358.638 140.889C358.748 140.929 358.863 140.952 358.984 140.975" stroke="black" stroke-width="2" stroke-linecap="round" stroke-linejoin="round"/>
<path d="M343.267 139.719C343.267 139.719 344.81 136.028 349.688 137.393" stroke="black" stroke-width="2" stroke-linecap="round" stroke-linejoin="round"/>
<path d="M354.854 136.603C354.854 136.603 358.044 132.693 364.143 135.279" stroke="black" stroke-width="2" stroke-linecap="round" stroke-linejoin="round"/>
<path d="M355.136 146.147C354.923 146.112 351.018 146.147 352.682 149.268" stroke="black" stroke-width="2" stroke-linecap="round" stroke-linejoin="round"/>
<path d="M351.334 153.749C351.334 153.749 359.368 151.094 363.855 150.449C363.855 150.449 366.55 158.075 359.495 159.492C352.52 160.885 351.334 153.749 351.334 153.749Z" stroke="black" stroke-width="2" stroke-linecap="round" stroke-linejoin="round"/>
<path d="M388.868 157.119L382.371 178.544L375.224 173.556L373.496 172.352L376.79 167.342L385.234 154.492L385.965 153.381L388.367 154.769L388.868 155.062C388.868 155.062 397.605 156.099 407.056 162.803C416.513 169.513 433.74 197.982 439.2 212.582L438.998 212.703L408.842 230.436L399.961 219.015" stroke="black" stroke-width="2" stroke-linecap="round" stroke-linejoin="round"/>
<path d="M388.369 154.769C388.369 154.769 397.083 153.122 394.457 142.357C394.457 142.357 395.822 107.645 376.072 107.334C376.072 107.334 370.814 100.296 354.855 107.858C338.889 115.42 327.543 136.471 332.9 152.154C332.9 152.154 337.306 163.995 348.404 161.743" stroke="black" stroke-width="2" stroke-linecap="round" stroke-linejoin="round"/>
<path d="M392.775 164.427C392.141 164.681 384.055 171.788 387.205 180.208C390.356 188.634 399.392 202.077 399.392 202.077" stroke="black" stroke-width="2" stroke-linecap="round" stroke-linejoin="round"/>
<path d="M403.488 201.029C403.488 201.029 393.823 203.868 387.136 205.78C385.121 206.356 383.381 206.846 382.252 207.157C381.452 207.37 380.962 207.491 380.905 207.485C380.905 207.485 380.876 207.905 380.864 208.648C380.847 210.71 381.008 215.249 382.54 220.236C382.713 220.795 382.903 221.36 383.111 221.93L399.393 219.113L399.963 219.015L411.05 217.098C411.05 217.098 420.086 216.072 417.564 204.191C415.041 192.309 409.368 177.092 409.368 177.092" stroke="black" stroke-width="2" stroke-linecap="round" stroke-linejoin="round"/>
<path d="M375.226 173.556L376.101 175.1L378.485 179.281C378.485 179.281 372.403 194.187 382.54 202.86C383.807 203.949 385.322 204.934 387.136 205.78" stroke="black" stroke-width="2" stroke-linecap="round" stroke-linejoin="round"/>
<path d="M380.864 208.648L374.183 210.273C374.183 210.273 369.973 200.188 363.252 201.236C363.252 201.236 360.107 202.63 361.472 205.717C361.472 205.717 350.132 207.75 351.336 211.425C352.545 215.105 354.855 213.987 354.855 213.987C354.855 213.987 354.423 218.463 358.155 218.883C358.155 218.883 358.639 221.826 361.369 221.93C361.369 221.93 363.776 226.301 381.181 220.686C381.625 220.542 382.079 220.392 382.54 220.236" stroke="black" stroke-width="2" stroke-linecap="round" stroke-linejoin="round"/>
<path d="M390.044 206.276C390.044 206.276 390.672 212.121 392.353 218.18" stroke="black" stroke-width="2" stroke-linecap="round" stroke-linejoin="round"/>
<path d="M382.54 202.86L382.137 206.719" stroke="black" stroke-width="2" stroke-linecap="round" stroke-linejoin="round"/>
<path d="M381.18 220.68V220.686L377.005 266.784L378.307 267.107L387.205 269.33L388.362 269.618L399.392 219.113" stroke="black" stroke-width="2" stroke-linecap="round" stroke-linejoin="round"/>
<path d="M378.306 267.107L377.005 275.498C377.005 275.498 356.852 280.791 350.759 284.552C350.759 284.552 351.07 287.259 356.639 285.9L374.286 284.011" stroke="black" stroke-width="2" stroke-linecap="round" stroke-linejoin="round"/>
<path d="M377.004 281.805L374.446 284.184L371.031 287.369C371.031 287.369 368.716 289.471 371.031 290.415C373.341 291.36 381.179 286.948 381.179 286.948C381.179 286.948 384.543 287.052 385.815 284.42C386.414 283.21 386.564 281.413 385.735 278.758L387.134 269.618" stroke="black" stroke-width="2" stroke-linecap="round" stroke-linejoin="round"/>
<path d="M379.607 256.699L388.195 258.905" stroke="black" stroke-width="2" stroke-linecap="round" stroke-linejoin="round"/>
<path d="M439.201 213.049C439.201 213.049 458.824 229.763 459.273 251.752C459.722 273.742 452.431 286.28 452.431 286.28C452.431 286.28 450.691 286.746 447.731 287.299C442.323 288.313 432.843 289.62 422.487 288.924C417.517 288.59 412.333 287.795 407.311 286.274C406.528 286.044 405.744 285.79 404.973 285.52C404.973 285.52 412.489 247.012 412.155 246.632C411.815 246.252 410.358 236.495 408.843 230.436" stroke="black" stroke-width="2" stroke-linecap="round" stroke-linejoin="round"/>
<path d="M443.602 399.131C440.417 402.603 432.872 409.492 438.735 411.444C439.173 411.588 454.632 414.975 461.664 410.534C465.638 408.029 463.835 401.233 461.474 395.796C459.66 391.609 457.511 388.222 457.413 388.222C457.194 388.222 452.357 350.354 450.969 341.415C449.575 332.476 448.406 312.405 443.055 303.397L447.732 287.299" stroke="black" stroke-width="2" stroke-linecap="round" stroke-linejoin="round"/>
<path d="M426.731 325.398C434.271 350.613 447.16 389.829 447.16 389.829C447.16 389.829 446.866 395.306 444.154 398.503C443.993 398.693 443.808 398.9 443.607 399.125" stroke="black" stroke-width="2" stroke-linecap="round" stroke-linejoin="round"/>
<path d="M422.487 288.924C422.487 288.924 420.846 297.286 421.427 305.315C421.595 307.596 423.743 315.394 426.732 325.392" stroke="black" stroke-width="2" stroke-linecap="round" stroke-linejoin="round"/>
<path d="M443.607 399.125H443.601C443.498 399.332 441.517 403.295 447.892 404.118C454.118 404.925 462.752 404.245 461.473 395.796" stroke="black" stroke-width="2" stroke-linecap="round" stroke-linejoin="round"/>
<path d="M407.31 286.28C407.31 286.28 404.344 301.946 405.174 311.996" stroke="black" stroke-width="2" stroke-linecap="round" stroke-linejoin="round"/>
<path d="M426.732 325.393L423.616 390.624C423.616 390.624 424.394 392.882 425.119 395.796C426.214 400.214 427.199 406.129 425.177 407.966H414.107" stroke="black" stroke-width="2" stroke-linecap="round" stroke-linejoin="round"/>
<path d="M425.119 395.796C425.119 395.796 421.675 398.918 414.107 399.758" stroke="black" stroke-width="2" stroke-linecap="round" stroke-linejoin="round"/>
<path d="M122.276 164.237L135.108 164.427" stroke="black" stroke-width="2" stroke-linecap="round" stroke-linejoin="round"/>
<path d="M227.524 210.774L233.336 219.862" stroke="black" stroke-width="2" stroke-linecap="round" stroke-linejoin="round"/>
<path d="M203.679 303.023C203.679 303.023 204.099 304.941 201.168 305.684C201.646 305.419 201.934 304.906 201.865 304.319L197.395 268.265C197.286 267.412 196.468 266.715 195.569 266.715H135.337C134.675 266.715 134.139 267.101 133.955 267.648L133.886 267.625C133.886 267.625 134.289 264.757 137.203 264.757H195.506C195.506 264.757 199.158 264.723 199.486 268.23L203.679 303.023Z" fill="black"/>
<path d="M201.167 305.684C200.954 305.799 200.701 305.868 200.424 305.868L199.48 305.903L199.514 305.868L197.585 292.138H140.607L137.71 299.037L133.897 268.265C133.868 268.046 133.897 267.833 133.955 267.648C134.139 267.101 134.675 266.715 135.337 266.715H195.569C196.468 266.715 197.286 267.412 197.395 268.265L201.864 304.319C201.933 304.906 201.645 305.419 201.167 305.684ZM140.607 271.162C140.607 270.373 139.962 269.728 139.173 269.728C138.384 269.728 137.733 270.373 137.733 271.162C137.733 271.951 138.378 272.601 139.173 272.601C139.967 272.601 140.607 271.956 140.607 271.162Z" fill="white"/>
<path d="M197.585 292.138L199.515 305.868L199.48 305.903L194.734 306.064L194.516 306.018L197.585 292.138Z" fill="black"/>
<path d="M199.48 305.903L193.19 311.996L194.515 306.018L194.734 306.064L199.48 305.903Z" fill="black"/>
<path d="M197.586 292.138L194.516 306.018L193.191 311.996H132.273L137.71 299.043V299.037L140.607 292.138H197.586Z" fill="white"/>
<path d="M139.173 269.727C139.962 269.727 140.607 270.372 140.607 271.162C140.607 271.951 139.962 272.601 139.173 272.601C138.384 272.601 137.733 271.956 137.733 271.162C137.733 270.367 138.378 269.727 139.173 269.727Z" fill="black"/>
<path d="M137.71 299.037L133.897 268.265C133.868 268.046 133.897 267.833 133.955 267.648C134.139 267.101 134.675 266.715 135.337 266.715H195.569C196.468 266.715 197.286 267.412 197.395 268.265L201.864 304.319C201.933 304.906 201.645 305.419 201.167 305.684C200.954 305.799 200.701 305.868 200.424 305.868L199.48 305.903L194.734 306.064" stroke="black" stroke-width="2" stroke-linecap="round" stroke-linejoin="round"/>
<path d="M133.886 267.625C133.886 267.625 134.289 264.757 137.203 264.757H195.506C195.506 264.757 199.158 264.723 199.486 268.23L203.679 303.023C203.679 303.023 204.099 304.941 201.168 305.684C201.162 305.684 201.15 305.69 201.145 305.69" stroke="black" stroke-width="2" stroke-linecap="round" stroke-linejoin="round"/>
<path d="M140.607 271.162C140.607 271.956 139.962 272.601 139.173 272.601C138.384 272.601 137.733 271.956 137.733 271.162C137.733 270.367 138.378 269.727 139.173 269.727C139.968 269.727 140.607 270.372 140.607 271.162Z" stroke="black" stroke-width="2" stroke-linecap="round" stroke-linejoin="round"/>
<path d="M137.71 299.037L140.607 292.138H197.586L199.515 305.868L199.48 305.903L193.191 311.996H132.273L137.71 299.043V299.037Z" stroke="black" stroke-width="2" stroke-linecap="round" stroke-linejoin="round"/>
<path d="M197.585 292.138L194.515 306.018L193.19 311.996" stroke="black" stroke-width="2" stroke-linecap="round" stroke-linejoin="round"/>
<path d="M328.593 304.399L344.506 289.88C345.036 289.402 346.113 289.217 346.914 289.465L360.633 293.808C361.174 293.98 361.52 294.286 361.606 294.631C361.67 294.856 361.606 295.098 361.416 295.317L346.683 311.904C346.038 312.629 344.691 312.883 343.694 312.462L328.881 306.202C328.535 306.052 328.305 305.833 328.201 305.58C328.052 305.211 328.173 304.774 328.582 304.399H328.593ZM345.56 291.21L331.836 304.013L345.71 309.658L358.64 295.478L345.56 291.21Z" fill="white"/>
<path d="M358.64 295.478L345.71 309.652L331.836 304.013L345.561 291.21L358.64 295.478Z" fill="#00C1FF"/>
<path d="M361.417 295.316C361.612 295.103 361.67 294.861 361.607 294.631H361.618C361.618 294.631 362.747 295.812 361.226 298.046C359.706 300.287 347.669 313.943 347.669 313.943C347.669 313.943 346.229 315.595 342.79 314.277C339.352 312.958 329.763 308.771 329.763 308.771C329.763 308.771 328.127 308.137 328.069 305.603L328.213 305.58C328.317 305.833 328.547 306.052 328.893 306.202L343.706 312.462C344.697 312.877 346.05 312.624 346.695 311.904L361.428 295.316H361.417Z" fill="black"/>
<path d="M361.606 294.631C361.67 294.856 361.606 295.098 361.416 295.317L346.683 311.904C346.038 312.629 344.691 312.883 343.694 312.462L328.881 306.202C328.535 306.052 328.305 305.833 328.201 305.58C328.052 305.211 328.173 304.774 328.582 304.399L344.495 289.88C345.025 289.402 346.102 289.217 346.902 289.465L360.621 293.808C361.163 293.98 361.508 294.286 361.595 294.631H361.606Z" stroke="black" stroke-width="2" stroke-linecap="round" stroke-linejoin="round"/>
<path d="M345.71 309.652L331.836 304.013L345.561 291.21L358.64 295.478L345.71 309.652Z" stroke="black" stroke-width="2" stroke-linecap="round" stroke-linejoin="round"/>
<path d="M361.618 294.631C361.618 294.631 362.747 295.812 361.226 298.046C359.706 300.287 347.669 313.943 347.669 313.943C347.669 313.943 346.229 315.595 342.79 314.277C339.352 312.958 329.763 308.771 329.763 308.771C329.763 308.771 328.127 308.137 328.069 305.603" stroke="black" stroke-width="2" stroke-linecap="round" stroke-linejoin="round"/>
</svg>
